<svg width="19" height="19" viewBox="0 0 19 19" fill="none" xmlns="http://www.w3.org/2000/svg">
<path d="M14.8438 6.33334V7.99584C14.4954 7.94834 14.0996 7.92459 13.6562 7.91668V6.33334C13.6562 3.83959 12.9517 2.17709 9.5 2.17709C6.04833 2.17709 5.34375 3.83959 5.34375 6.33334V7.91668C4.90042 7.92459 4.50458 7.94834 4.15625 7.99584V6.33334C4.15625 4.03751 4.71042 0.989594 9.5 0.989594C14.2896 0.989594 14.8438 4.03751 14.8438 6.33334Z" fill="black"/>
<path d="M14.8437 7.99582C14.4953 7.94832 14.0995 7.92457 13.6562 7.91666H5.34367C4.90034 7.92457 4.5045 7.94832 4.15617 7.99582C2.13742 8.24124 1.58325 9.23082 1.58325 11.875V13.4583C1.58325 16.625 2.37492 17.4167 5.54158 17.4167H13.4583C16.6249 17.4167 17.4166 16.625 17.4166 13.4583V11.875C17.4166 9.23082 16.8624 8.24124 14.8437 7.99582ZM6.89534 13.2287C6.74492 13.3712 6.53908 13.4583 6.33325 13.4583C6.23034 13.4583 6.12742 13.4346 6.03242 13.395C5.9295 13.3554 5.85034 13.3 5.77117 13.2287C5.62867 13.0783 5.54158 12.8725 5.54158 12.6667C5.54158 12.5637 5.56534 12.4608 5.60492 12.3658C5.6445 12.2708 5.69992 12.1837 5.77117 12.1046C5.85034 12.0333 5.9295 11.9779 6.03242 11.9383C6.32534 11.8117 6.67367 11.8829 6.89534 12.1046C6.96659 12.1837 7.022 12.2708 7.06158 12.3658C7.10117 12.4608 7.12492 12.5637 7.12492 12.6667C7.12492 12.8725 7.03784 13.0783 6.89534 13.2287ZM10.2283 12.9675C10.1887 13.0625 10.1333 13.1496 10.062 13.2287C9.91158 13.3712 9.70575 13.4583 9.49992 13.4583C9.28617 13.4583 9.08825 13.3712 8.93783 13.2287C8.86658 13.1496 8.81117 13.0625 8.77158 12.9675C8.732 12.8725 8.70825 12.7696 8.70825 12.6667C8.70825 12.4529 8.79533 12.255 8.93783 12.1046C9.23075 11.8117 9.76117 11.8117 10.062 12.1046C10.2045 12.255 10.2916 12.4529 10.2916 12.6667C10.2916 12.7696 10.2678 12.8725 10.2283 12.9675ZM13.2287 13.2287C13.0783 13.3712 12.8724 13.4583 12.6666 13.4583C12.4608 13.4583 12.2549 13.3712 12.1045 13.2287C11.962 13.0783 11.8749 12.8804 11.8749 12.6667C11.8749 12.4529 11.962 12.255 12.1045 12.1046C12.4053 11.8117 12.9358 11.8117 13.2287 12.1046C13.2603 12.1442 13.292 12.1837 13.3237 12.2312C13.3553 12.2708 13.3791 12.3183 13.3949 12.3658C13.4187 12.4133 13.4345 12.4608 13.4424 12.5083C13.4503 12.5637 13.4583 12.6192 13.4583 12.6667C13.4583 12.8725 13.3712 13.0783 13.2287 13.2287Z" fill="black"/>
</svg>
