<svg width="18" height="18" viewBox="0 0 18 18" fill="none" xmlns="http://www.w3.org/2000/svg">
<path d="M16.2819 6.49924C14.6537 6.49924 13.988 5.34782 14.7976 3.93552C15.2654 3.11693 14.9865 2.07345 14.1679 1.60568L12.6117 0.715125C11.901 0.292336 10.9835 0.54421 10.5607 1.25486L10.4618 1.42577C9.65217 2.83807 8.32084 2.83807 7.50225 1.42577L7.4033 1.25486C6.9985 0.54421 6.08096 0.292336 5.37031 0.715125L3.81409 1.60568C2.9955 2.07345 2.71664 3.12592 3.18441 3.94452C4.003 5.34782 3.33733 6.49924 1.70915 6.49924C0.773613 6.49924 0 7.26386 0 8.20839V9.7916C0 10.7271 0.764618 11.5007 1.70915 11.5007C3.33733 11.5007 4.003 12.6522 3.18441 14.0645C2.71664 14.8831 2.9955 15.9265 3.81409 16.3943L5.37031 17.2849C6.08096 17.7077 6.9985 17.4558 7.42129 16.7451L7.52024 16.5742C8.32983 15.1619 9.66117 15.1619 10.4798 16.5742L10.5787 16.7451C11.0015 17.4558 11.919 17.7077 12.6297 17.2849L14.1859 16.3943C15.0045 15.9265 15.2834 14.8741 14.8156 14.0645C13.997 12.6522 14.6627 11.5007 16.2909 11.5007C17.2264 11.5007 18 10.7361 18 9.7916V8.20839C17.991 7.27286 17.2264 6.49924 16.2819 6.49924ZM8.9955 11.9235C7.38531 11.9235 6.07196 10.6102 6.07196 8.99999C6.07196 7.3898 7.38531 6.07645 8.9955 6.07645C10.6057 6.07645 11.919 7.3898 11.919 8.99999C11.919 10.6102 10.6057 11.9235 8.9955 11.9235Z" fill="black"/>
</svg>
