<svg width="26" height="24" viewBox="0 0 26 24" fill="none" xmlns="http://www.w3.org/2000/svg">
<g clip-path="url(#clip0_1266_4090)">
<path fill-rule="evenodd" clip-rule="evenodd" d="M25.4042 6.20037C25.584 5.67712 25.4042 5.29187 24.5429 5.29187H21.6992C20.9755 5.29187 20.6418 5.62441 20.4609 5.99145C20.4609 5.99145 19.0147 9.05429 16.9661 11.0438C16.3031 11.6207 16.0019 11.8037 15.6401 11.8037C15.4592 11.8037 15.1873 11.6207 15.1873 11.0965V6.20037C15.1873 5.5717 14.9879 5.29187 14.3856 5.29187H9.91358C9.46183 5.29187 9.18992 5.5832 9.18992 5.86016C9.18992 6.45529 10.2148 6.59329 10.3198 8.26845V11.9082C10.3198 12.7065 10.1541 12.8512 9.79225 12.8512C8.82808 12.8512 6.48267 9.77399 5.09058 6.25308C4.82083 5.56787 4.54783 5.29187 3.82092 5.29187H0.975C0.1625 5.29187 0 5.62441 0 5.99145C0 6.64504 0.964167 9.89187 4.49042 14.1862C6.84125 17.1187 10.1508 18.7085 13.1658 18.7085C14.9738 18.7085 15.197 18.3559 15.197 17.7473V15.5307C15.197 14.8244 15.3682 14.6835 15.9413 14.6835C16.3638 14.6835 17.0863 14.8675 18.7742 16.2811C20.7025 17.9572 21.0199 18.7085 22.1054 18.7085H24.9492C25.7617 18.7085 26.169 18.3559 25.935 17.6582C25.6772 16.9644 24.7563 15.9572 23.5354 14.7621C22.8724 14.0817 21.8779 13.3486 21.5757 12.9815C21.1543 12.511 21.2745 12.3011 21.5757 11.8823C21.5757 11.8823 25.0423 7.64075 25.4031 6.20037H25.4042Z" fill="#F8F8F8"/>
</g>
<defs>
<clipPath id="clip0_1266_4090">
<rect width="26" height="23" fill="white" transform="translate(0 0.5)"/>
</clipPath>
</defs>
</svg>
