<?xml version="1.0" encoding="UTF-8"?>
<svg xmlns="http://www.w3.org/2000/svg" id="Layer_1" data-name="Layer 1" viewBox="0 0 24 24">
  <path d="m16.84,13.133c.203.188.215.504.027.707l-4.086,4.414c-.485.486-1.113.746-1.781.746s-1.296-.26-1.768-.732l-2.079-1.993c-.199-.191-.206-.507-.015-.707.191-.199.507-.205.707-.015l2.086,2c.581.581,1.562.574,2.128.007l4.073-4.4c.187-.203.504-.216.707-.027Zm5.16-3.148v9.515c0,2.481-2.019,4.5-4.5,4.5H6.5c-2.481,0-4.5-2.019-4.5-4.5V4.5C2,2.019,4.019,0,6.5,0h5.515c1.736,0,3.369.676,4.596,1.904l3.485,3.485c1.228,1.228,1.904,2.86,1.904,4.596Zm-6.096-7.375c-.55-.55-1.2-.959-1.904-1.231v5.121c0,.827.673,1.5,1.5,1.5h5.121c-.273-.704-.682-1.354-1.231-1.904l-3.485-3.485Zm5.096,7.375c0-.335-.038-.663-.096-.985h-5.404c-1.378,0-2.5-1.122-2.5-2.5V1.096c-.323-.058-.651-.096-.985-.096h-5.515c-1.93,0-3.5,1.57-3.5,3.5v15c0,1.93,1.57,3.5,3.5,3.5h11c1.93,0,3.5-1.57,3.5-3.5v-9.515Z"/>
</svg>
