<svg width="27" height="27" viewBox="0 0 27 27" fill="none" xmlns="http://www.w3.org/2000/svg">
<path d="M11.8108 1.6875C10.9157 1.6875 10.0573 2.04308 9.42433 2.67601C8.79139 3.30895 8.43581 4.16739 8.43581 5.0625V18.5625C8.43581 19.4576 8.79139 20.316 9.42433 20.949C10.0573 21.5819 10.9157 21.9375 11.8108 21.9375H20.25C21.1451 21.9375 22.0035 21.5819 22.6365 20.949C23.2694 20.316 23.625 19.4576 23.625 18.5625V9.28125H23.6216V7.44862C23.6215 6.77776 23.355 6.1344 22.8808 5.65988L19.6509 2.42831C19.1764 1.95409 18.533 1.68764 17.8622 1.6875H11.8108ZM20.25 20.25H11.8108C11.3633 20.25 10.934 20.0722 10.6176 19.7557C10.3011 19.4393 10.1233 19.0101 10.1233 18.5625V5.0625C10.1233 4.61495 10.3011 4.18572 10.6176 3.86926C10.934 3.55279 11.3633 3.375 11.8108 3.375H16.8733V5.90625C16.8733 6.57758 17.14 7.22141 17.6147 7.69611C18.0894 8.17082 18.7332 8.4375 19.4046 8.4375H21.9358V10.2279H21.9375V18.5625C21.9375 19.0101 21.7597 19.4393 21.4432 19.7557C21.1268 20.0722 20.6976 20.25 20.25 20.25ZM21.5848 6.75H19.4029C19.1791 6.75 18.9645 6.6611 18.8063 6.50287C18.648 6.34464 18.5591 6.13003 18.5591 5.90625V3.72431L21.5848 6.75ZM5.0625 6.75C5.0625 6.30245 5.24029 5.87322 5.55676 5.55676C5.87322 5.24029 6.30245 5.0625 6.75 5.0625V18.5625C6.75 19.9052 7.28337 21.1928 8.23277 22.1422C9.18218 23.0916 10.4698 23.625 11.8125 23.625H20.25C20.25 24.0726 20.0722 24.5018 19.7557 24.8182C19.4393 25.1347 19.0101 25.3125 18.5625 25.3125H11.4581C9.7619 25.3125 8.13515 24.6387 6.93574 23.4393C5.73632 22.2399 5.0625 20.6131 5.0625 18.9169V6.75Z" fill="#878787"/>
</svg>
