<svg width="19" height="19" viewBox="0 0 19 19" fill="none" xmlns="http://www.w3.org/2000/svg">
<path d="M11.3616 1.58334H7.64078C6.81745 1.58334 6.14453 2.24834 6.14453 3.07168V3.81584C6.14453 4.63918 6.80953 5.30418 7.63286 5.30418H11.3616C12.1849 5.30418 12.8499 4.63918 12.8499 3.81584V3.07168C12.8579 2.24834 12.1849 1.58334 11.3616 1.58334Z" fill="black"/>
<path d="M13.6492 3.81585C13.6492 5.0746 12.6201 6.10376 11.3613 6.10376H7.64047C6.38172 6.10376 5.35255 5.0746 5.35255 3.81585C5.35255 3.37251 4.87755 3.09543 4.48172 3.30126C3.36547 3.89501 2.60547 5.0746 2.60547 6.42835V13.8779C2.60547 15.8254 4.19672 17.4167 6.14422 17.4167H12.8576C14.8051 17.4167 16.3963 15.8254 16.3963 13.8779V6.42835C16.3963 5.0746 15.6363 3.89501 14.5201 3.30126C14.1242 3.09543 13.6492 3.37251 13.6492 3.81585ZM9.80172 13.4188H6.33422C6.00964 13.4188 5.74047 13.1496 5.74047 12.825C5.74047 12.5004 6.00964 12.2313 6.33422 12.2313H9.80172C10.1263 12.2313 10.3955 12.5004 10.3955 12.825C10.3955 13.1496 10.1263 13.4188 9.80172 13.4188ZM11.8759 10.2521H6.33422C6.00964 10.2521 5.74047 9.98293 5.74047 9.65835C5.74047 9.33376 6.00964 9.0646 6.33422 9.0646H11.8759C12.2005 9.0646 12.4696 9.33376 12.4696 9.65835C12.4696 9.98293 12.2005 10.2521 11.8759 10.2521Z" fill="black"/>
</svg>
