<svg width="19" height="19" viewBox="0 0 19 19" fill="none" xmlns="http://www.w3.org/2000/svg">
<path d="M14.8438 6.33301V7.99551C14.4954 7.94801 14.0996 7.92426 13.6562 7.91634V6.33301C13.6562 3.83926 12.9517 2.17676 9.5 2.17676C6.04833 2.17676 5.34375 3.83926 5.34375 6.33301V7.91634C4.90042 7.92426 4.50458 7.94801 4.15625 7.99551V6.33301C4.15625 4.03717 4.71042 0.989258 9.5 0.989258C14.2896 0.989258 14.8438 4.03717 14.8438 6.33301Z" fill="black"/>
<path d="M14.8438 7.99616C14.4955 7.94866 14.0996 7.92491 13.6563 7.91699H5.34379C4.90046 7.92491 4.50462 7.94866 4.15629 7.99616C2.13754 8.24158 1.58337 9.23116 1.58337 11.8753V13.4587C1.58337 16.6253 2.37504 17.417 5.54171 17.417H13.4584C16.625 17.417 17.4167 16.6253 17.4167 13.4587V11.8753C17.4167 9.23116 16.8625 8.24158 14.8438 7.99616ZM6.89546 13.2291C6.74504 13.3716 6.53921 13.4587 6.33337 13.4587C6.23046 13.4587 6.12754 13.4349 6.03254 13.3953C5.92962 13.3557 5.85046 13.3003 5.77129 13.2291C5.62879 13.0787 5.54171 12.8728 5.54171 12.667C5.54171 12.5641 5.56546 12.4612 5.60504 12.3662C5.64462 12.2712 5.70004 12.1841 5.77129 12.1049C5.85046 12.0337 5.92962 11.9782 6.03254 11.9387C6.32546 11.812 6.67379 11.8832 6.89546 12.1049C6.96671 12.1841 7.02212 12.2712 7.06171 12.3662C7.10129 12.4612 7.12504 12.5641 7.12504 12.667C7.12504 12.8728 7.03796 13.0787 6.89546 13.2291ZM10.2284 12.9678C10.1888 13.0628 10.1334 13.1499 10.0621 13.2291C9.91171 13.3716 9.70587 13.4587 9.50004 13.4587C9.28629 13.4587 9.08837 13.3716 8.93796 13.2291C8.86671 13.1499 8.81129 13.0628 8.77171 12.9678C8.73212 12.8728 8.70837 12.7699 8.70837 12.667C8.70837 12.4532 8.79546 12.2553 8.93796 12.1049C9.23087 11.812 9.76129 11.812 10.0621 12.1049C10.2046 12.2553 10.2917 12.4532 10.2917 12.667C10.2917 12.7699 10.268 12.8728 10.2284 12.9678ZM13.2288 13.2291C13.0784 13.3716 12.8725 13.4587 12.6667 13.4587C12.4609 13.4587 12.255 13.3716 12.1046 13.2291C11.9621 13.0787 11.875 12.8807 11.875 12.667C11.875 12.4532 11.9621 12.2553 12.1046 12.1049C12.4055 11.812 12.9359 11.812 13.2288 12.1049C13.2605 12.1445 13.2921 12.1841 13.3238 12.2316C13.3555 12.2712 13.3792 12.3187 13.395 12.3662C13.4188 12.4137 13.4346 12.4612 13.4425 12.5087C13.4505 12.5641 13.4584 12.6195 13.4584 12.667C13.4584 12.8728 13.3713 13.0787 13.2288 13.2291Z" fill="black"/>
</svg>
