<svg width="18" height="18" viewBox="0 0 18 18" fill="none" xmlns="http://www.w3.org/2000/svg">
<path d="M12.75 1.82249H5.25C3 1.82249 1.5 3.32249 1.5 5.57249V10.0725C1.5 12.3225 3 13.8225 5.25 13.8225V15.42C5.25 16.02 5.9175 16.38 6.4125 16.0425L9.75 13.8225H12.75C15 13.8225 16.5 12.3225 16.5 10.0725V5.57249C16.5 3.32249 15 1.82249 12.75 1.82249ZM9 10.95C8.685 10.95 8.4375 10.695 8.4375 10.3875C8.4375 10.08 8.685 9.825 9 9.825C9.315 9.825 9.5625 10.08 9.5625 10.3875C9.5625 10.695 9.315 10.95 9 10.95ZM9.945 7.83749C9.6525 8.03249 9.5625 8.15999 9.5625 8.36999V8.52749C9.5625 8.83499 9.3075 9.08999 9 9.08999C8.6925 9.08999 8.4375 8.83499 8.4375 8.52749V8.36999C8.4375 7.49999 9.075 7.07249 9.315 6.90749C9.5925 6.71999 9.6825 6.59249 9.6825 6.39749C9.6825 6.02249 9.375 5.71499 9 5.71499C8.625 5.71499 8.3175 6.02249 8.3175 6.39749C8.3175 6.70499 8.0625 6.95999 7.755 6.95999C7.4475 6.95999 7.1925 6.70499 7.1925 6.39749C7.1925 5.39999 8.0025 4.58999 9 4.58999C9.9975 4.58999 10.8075 5.39999 10.8075 6.39749C10.8075 7.25249 10.1775 7.67999 9.945 7.83749Z" fill="black"/>
</svg>
