<svg width="18" height="18" viewBox="0 0 18 18" fill="none" xmlns="http://www.w3.org/2000/svg">
<path d="M12.75 1.82227H5.25C3 1.82227 1.5 3.32227 1.5 5.57227V10.0723C1.5 12.3223 3 13.8223 5.25 13.8223V15.4198C5.25 16.0198 5.9175 16.3798 6.4125 16.0423L9.75 13.8223H12.75C15 13.8223 16.5 12.3223 16.5 10.0723V5.57227C16.5 3.32227 15 1.82227 12.75 1.82227ZM9 10.9498C8.685 10.9498 8.4375 10.6948 8.4375 10.3873C8.4375 10.0798 8.685 9.82477 9 9.82477C9.315 9.82477 9.5625 10.0798 9.5625 10.3873C9.5625 10.6948 9.315 10.9498 9 10.9498ZM9.945 7.83727C9.6525 8.03227 9.5625 8.15977 9.5625 8.36977V8.52727C9.5625 8.83477 9.3075 9.08977 9 9.08977C8.6925 9.08977 8.4375 8.83477 8.4375 8.52727V8.36977C8.4375 7.49977 9.075 7.07227 9.315 6.90727C9.5925 6.71977 9.6825 6.59227 9.6825 6.39727C9.6825 6.02227 9.375 5.71477 9 5.71477C8.625 5.71477 8.3175 6.02227 8.3175 6.39727C8.3175 6.70477 8.0625 6.95977 7.755 6.95977C7.4475 6.95977 7.1925 6.70477 7.1925 6.39727C7.1925 5.39977 8.0025 4.58977 9 4.58977C9.9975 4.58977 10.8075 5.39977 10.8075 6.39727C10.8075 7.25226 10.1775 7.67977 9.945 7.83727Z" fill="black"/>
</svg>
