<svg width="18" height="18" viewBox="0 0 18 18" fill="none" xmlns="http://www.w3.org/2000/svg">
<path d="M14.3762 4.98001C14.0537 3.35251 12.8463 2.64001 11.1663 2.64001H4.58125C2.60125 2.64001 1.28125 3.63001 1.28125 5.94001V9.80251C1.28125 11.4675 1.96375 12.4425 3.08875 12.8625C3.25375 12.9225 3.43375 12.975 3.62125 13.005C3.92125 13.0725 4.24375 13.1025 4.58125 13.1025H11.1737C13.1537 13.1025 14.4738 12.1125 14.4738 9.80251V5.94001C14.4738 5.58751 14.4437 5.27251 14.3762 4.98001ZM4.14625 9.00001C4.14625 9.30751 3.89125 9.56251 3.58375 9.56251C3.27625 9.56251 3.02125 9.30751 3.02125 9.00001V6.75001C3.02125 6.44251 3.27625 6.18751 3.58375 6.18751C3.89125 6.18751 4.14625 6.44251 4.14625 6.75001V9.00001ZM7.87375 9.85501C6.77875 9.85501 5.89375 8.97001 5.89375 7.87501C5.89375 6.78001 6.77875 5.89501 7.87375 5.89501C8.96875 5.89501 9.85375 6.78001 9.85375 7.87501C9.85375 8.97001 8.96875 9.85501 7.87375 9.85501ZM12.7187 9.00001C12.7187 9.30751 12.4637 9.56251 12.1562 9.56251C11.8487 9.56251 11.5938 9.30751 11.5938 9.00001V6.75001C11.5938 6.44251 11.8487 6.18751 12.1562 6.18751C12.4637 6.18751 12.7187 6.44251 12.7187 6.75001V9.00001Z" fill="black"/>
<path d="M16.7243 8.18999V12.0525C16.7243 14.3625 15.4043 15.36 13.4168 15.36H6.83184C6.26934 15.36 5.76684 15.2775 5.33184 15.1125C4.97934 14.985 4.67184 14.7975 4.42434 14.5575C4.28934 14.43 4.39434 14.2275 4.58184 14.2275H11.1668C13.9418 14.2275 15.5918 12.5775 15.5918 9.80999V5.93999C15.5918 5.75999 15.7943 5.64749 15.9218 5.78249C16.4318 6.32249 16.7243 7.10999 16.7243 8.18999Z" fill="black"/>
</svg>
