<svg width="18" height="18" viewBox="0 0 18 18" fill="none" xmlns="http://www.w3.org/2000/svg">
<path d="M14.3777 4.98001C14.0552 3.35251 12.8477 2.64001 11.1677 2.64001H4.58272C2.60271 2.64001 1.28271 3.63001 1.28271 5.94001V9.80251C1.28271 11.4675 1.96521 12.4425 3.09021 12.8625C3.25521 12.9225 3.43521 12.975 3.62271 13.005C3.92271 13.0725 4.24521 13.1025 4.58272 13.1025H11.1752C13.1552 13.1025 14.4752 12.1125 14.4752 9.80251V5.94001C14.4752 5.58751 14.4452 5.27251 14.3777 4.98001ZM4.14772 9.00001C4.14772 9.30751 3.89271 9.56251 3.58522 9.56251C3.27771 9.56251 3.02271 9.30751 3.02271 9.00001V6.75001C3.02271 6.44251 3.27771 6.18751 3.58522 6.18751C3.89271 6.18751 4.14772 6.44251 4.14772 6.75001V9.00001ZM7.87521 9.85501C6.78021 9.85501 5.89522 8.97001 5.89522 7.87501C5.89522 6.78001 6.78021 5.89501 7.87521 5.89501C8.97021 5.89501 9.85522 6.78001 9.85522 7.87501C9.85522 8.97001 8.97021 9.85501 7.87521 9.85501ZM12.7202 9.00001C12.7202 9.30751 12.4652 9.56251 12.1577 9.56251C11.8502 9.56251 11.5952 9.30751 11.5952 9.00001V6.75001C11.5952 6.44251 11.8502 6.18751 12.1577 6.18751C12.4652 6.18751 12.7202 6.44251 12.7202 6.75001V9.00001Z" fill="black"/>
<path d="M16.7248 8.18999V12.0525C16.7248 14.3625 15.4048 15.36 13.4173 15.36H6.83233C6.26983 15.36 5.76733 15.2775 5.33233 15.1125C4.97983 14.985 4.67233 14.7975 4.42483 14.5575C4.28983 14.43 4.39483 14.2275 4.58233 14.2275H11.1673C13.9423 14.2275 15.5923 12.5775 15.5923 9.80999V5.93999C15.5923 5.75999 15.7948 5.64749 15.9223 5.78249C16.4323 6.32249 16.7248 7.10999 16.7248 8.18999Z" fill="black"/>
</svg>
