<svg width="18" height="18" viewBox="0 0 18 18" fill="none" xmlns="http://www.w3.org/2000/svg">
<path d="M13.5 1.5H4.5C3.255 1.5 2.25 2.4975 2.25 3.7275V11.91C2.25 13.14 3.255 14.145 4.5 14.145H5.07C5.6625 14.145 6.24 14.3775 6.66 14.7975L7.9425 16.065C8.5275 16.6425 9.4725 16.6425 10.0575 16.065L11.34 14.7975C11.76 14.3775 12.3375 14.145 12.93 14.145H13.5C14.745 14.145 15.75 13.14 15.75 11.91V3.7275C15.75 2.4975 14.745 1.5 13.5 1.5ZM9 4.1625C9.81 4.1625 10.4625 4.8225 10.4625 5.625C10.4625 6.42 9.8325 7.0575 9.0525 7.0875C9.0225 7.0875 8.9775 7.0875 8.94 7.0875C8.1525 7.0575 7.53 6.42 7.53 5.625C7.5375 4.8225 8.19 4.1625 9 4.1625ZM11.0625 11.0175C9.93 11.775 8.07 11.775 6.9375 11.0175C5.94 10.3575 5.94 9.2625 6.9375 8.595C8.0775 7.8375 9.9375 7.8375 11.0625 8.595C12.06 9.2625 12.06 10.35 11.0625 11.0175Z" fill="black"/>
</svg>
