<svg width="33" height="30" viewBox="0 0 33 30" fill="none" xmlns="http://www.w3.org/2000/svg">
<g clip-path="url(#clip0_1001_430)">
<path fill-rule="evenodd" clip-rule="evenodd" d="M32.2438 8.04003C32.472 7.38028 32.2438 6.89453 31.1506 6.89453H27.5413C26.6228 6.89453 26.1993 7.31382 25.9696 7.77661C25.9696 7.77661 24.134 11.6384 21.5339 14.1469C20.6924 14.8744 20.3101 15.1052 19.8509 15.1052C19.6213 15.1052 19.2761 14.8744 19.2761 14.2134V8.04003C19.2761 7.24736 19.0231 6.89453 18.2586 6.89453H12.5826C12.0093 6.89453 11.6641 7.26186 11.6641 7.61107C11.6641 8.36145 12.9649 8.53545 13.0983 10.6476V15.2369C13.0983 16.2434 12.8879 16.4259 12.4286 16.4259C11.2049 16.4259 8.228 12.5459 6.46113 8.10649C6.11875 7.24253 5.77225 6.89453 4.84963 6.89453H1.2375C0.20625 6.89453 0 7.31382 0 7.77661C0 8.6007 1.22375 12.6945 5.69938 18.1091C8.68313 21.8066 12.8838 23.8112 16.7104 23.8112C19.0053 23.8112 19.2885 23.3665 19.2885 22.5992V19.8044C19.2885 18.9138 19.5058 18.7362 20.2331 18.7362C20.7694 18.7362 21.6865 18.9682 23.8288 20.7505C26.2763 22.8639 26.6791 23.8112 28.0569 23.8112H31.6663C32.6975 23.8112 33.2145 23.3665 32.9175 22.4869C32.5903 21.612 31.4215 20.3421 29.8719 18.8353C29.0304 17.9774 27.7681 17.053 27.3845 16.5902C26.8496 15.9969 27.0023 15.7323 27.3845 15.2042C27.3845 15.2042 31.7845 9.85616 32.2424 8.04003H32.2438Z" fill="#F8F8F8"/>
</g>
<defs>
<clipPath id="clip0_1001_430">
<rect width="33" height="29" fill="white" transform="translate(0 0.853027)"/>
</clipPath>
</defs>
</svg>
