<svg width="26" height="23" viewBox="0 0 26 23" fill="none" xmlns="http://www.w3.org/2000/svg">
<g clip-path="url(#clip0_1170_2894)">
<path fill-rule="evenodd" clip-rule="evenodd" d="M25.4042 5.70049C25.584 5.17724 25.4042 4.79199 24.5429 4.79199H21.6992C20.9755 4.79199 20.6418 5.12453 20.4609 5.49158C20.4609 5.49158 19.0147 8.55441 16.9661 10.5439C16.3031 11.1208 16.0019 11.3039 15.6401 11.3039C15.4592 11.3039 15.1873 11.1208 15.1873 10.5966V5.70049C15.1873 5.07183 14.9879 4.79199 14.3856 4.79199H9.91358C9.46183 4.79199 9.18992 5.08333 9.18992 5.36028C9.18992 5.95541 10.2148 6.09341 10.3198 7.76858V11.4083C10.3198 12.2066 10.1541 12.3513 9.79225 12.3513C8.82808 12.3513 6.48267 9.27412 5.09058 5.7532C4.82083 5.06799 4.54783 4.79199 3.82092 4.79199H0.975C0.1625 4.79199 0 5.12453 0 5.49158C0 6.14516 0.964167 9.39199 4.49042 13.6863C6.84125 16.6188 10.1508 18.2087 13.1658 18.2087C14.9738 18.2087 15.197 17.856 15.197 17.2474V15.0308C15.197 14.3245 15.3682 14.1837 15.9413 14.1837C16.3638 14.1837 17.0863 14.3677 18.7742 15.7812C20.7025 17.4573 21.0199 18.2087 22.1054 18.2087H24.9492C25.7617 18.2087 26.169 17.856 25.935 17.1583C25.6772 16.4645 24.7563 15.4573 23.5354 14.2622C22.8724 13.5818 21.8779 12.8487 21.5757 12.4817C21.1543 12.0111 21.2745 11.8012 21.5757 11.3825C21.5757 11.3825 25.0423 7.14087 25.4031 5.70049H25.4042Z" fill="#F8F8F8"/>
</g>
<defs>
<clipPath id="clip0_1170_2894">
<rect width="26" height="23" fill="white"/>
</clipPath>
</defs>
</svg>
