<svg width="20" height="20" viewBox="0 0 20 20" fill="none" xmlns="http://www.w3.org/2000/svg">
<path d="M10.25 1.625C5.77312 1.625 2.125 5.27312 2.125 9.75C2.125 14.2269 5.77312 17.875 10.25 17.875C14.7269 17.875 18.375 14.2269 18.375 9.75C18.375 5.27312 14.7269 1.625 10.25 1.625ZM13.5 10.3594H10.8594V13C10.8594 13.3331 10.5831 13.6094 10.25 13.6094C9.91687 13.6094 9.64062 13.3331 9.64062 13V10.3594H7C6.66687 10.3594 6.39062 10.0831 6.39062 9.75C6.39062 9.41687 6.66687 9.14062 7 9.14062H9.64062V6.5C9.64062 6.16687 9.91687 5.89062 10.25 5.89062C10.5831 5.89062 10.8594 6.16687 10.8594 6.5V9.14062H13.5C13.8331 9.14062 14.1094 9.41687 14.1094 9.75C14.1094 10.0831 13.8331 10.3594 13.5 10.3594Z" fill="#F8F8F8"/>
</svg>
