<svg width="37" height="32" viewBox="0 0 37 32" fill="none" xmlns="http://www.w3.org/2000/svg">
<g clip-path="url(#clip0_1004_688)">
<path fill-rule="evenodd" clip-rule="evenodd" d="M35.675 7.93099C35.924 7.20299 35.675 6.66699 34.4825 6.66699H30.545C29.543 6.66699 29.081 7.12966 28.8305 7.64033C28.8305 7.64033 26.828 11.9017 23.9915 14.6697C23.0735 15.4723 22.6565 15.727 22.1555 15.727C21.905 15.727 21.5285 15.4723 21.5285 14.743V7.93099C21.5285 7.05633 21.2525 6.66699 20.4185 6.66699H14.2265C13.601 6.66699 13.2245 7.07233 13.2245 7.45766C13.2245 8.28566 14.6435 8.47766 14.789 10.8083V15.8723C14.789 16.983 14.5595 17.1843 14.0585 17.1843C12.7235 17.1843 9.476 12.903 7.5485 8.00433C7.175 7.05099 6.797 6.66699 5.7905 6.66699H1.85C0.725 6.66699 0.5 7.12966 0.5 7.64033C0.5 8.54966 1.835 13.067 6.7175 19.0417C9.9725 23.1217 14.555 25.3337 18.7295 25.3337C21.233 25.3337 21.542 24.843 21.542 23.9963V20.9123C21.542 19.9297 21.779 19.7337 22.5725 19.7337C23.1575 19.7337 24.158 19.9897 26.495 21.9563C29.165 24.2883 29.6045 25.3337 31.1075 25.3337H35.045C36.17 25.3337 36.734 24.843 36.41 23.8723C36.053 22.907 34.778 21.5057 33.0875 19.843C32.1695 18.8963 30.7925 17.8763 30.374 17.3657C29.7905 16.711 29.957 16.419 30.374 15.8363C30.374 15.8363 35.174 9.93499 35.6735 7.93099H35.675Z" fill="#2A5885"/>
</g>
<defs>
<clipPath id="clip0_1004_688">
<rect width="36" height="32" fill="white" transform="translate(0.5)"/>
</clipPath>
</defs>
</svg>
