<svg width="18" height="18" viewBox="0 0 18 18" fill="none" xmlns="http://www.w3.org/2000/svg">
<path d="M8.99993 14.7779L2.45468 8.40893C2.40193 8.3565 2.33931 8.31504 2.27044 8.28696C2.20156 8.25889 2.12781 8.24475 2.05343 8.24537C1.97906 8.24599 1.90555 8.26135 1.83715 8.29056C1.76875 8.31978 1.70683 8.36227 1.65496 8.41558C1.60309 8.46888 1.56231 8.53194 1.53497 8.60112C1.50764 8.67029 1.49429 8.74419 1.49571 8.81856C1.49712 8.89292 1.51327 8.96626 1.54322 9.03434C1.57317 9.10242 1.61632 9.16389 1.67018 9.21518L8.60768 15.9652C8.71269 16.0673 8.85342 16.1245 8.99993 16.1245C9.14644 16.1245 9.28717 16.0673 9.39218 15.9652L16.3297 9.21518C16.3835 9.16389 16.4267 9.10242 16.4566 9.03434C16.4866 8.96626 16.5027 8.89292 16.5042 8.81856C16.5056 8.74419 16.4922 8.67029 16.4649 8.60112C16.4376 8.53194 16.3968 8.46888 16.3449 8.41558C16.293 8.36227 16.2311 8.31978 16.1627 8.29056C16.0943 8.26135 16.0208 8.24599 15.9464 8.24537C15.8721 8.24475 15.7983 8.25889 15.7294 8.28696C15.6606 8.31504 15.5979 8.3565 15.5452 8.40893L8.99993 14.7779Z" fill="#161616"/>
</svg>
