<svg width="19" height="19" viewBox="0 0 19 19" fill="none" xmlns="http://www.w3.org/2000/svg">
<path d="M11.3606 1.58334H7.6398C6.81647 1.58334 6.14355 2.24834 6.14355 3.07168V3.81584C6.14355 4.63918 6.80855 5.30418 7.63189 5.30418H11.3606C12.184 5.30418 12.849 4.63918 12.849 3.81584V3.07168C12.8569 2.24834 12.184 1.58334 11.3606 1.58334Z" fill="black"/>
<path d="M13.6482 3.81585C13.6482 5.0746 12.6191 6.10376 11.3603 6.10376H7.63949C6.38074 6.10376 5.35158 5.0746 5.35158 3.81585C5.35158 3.37251 4.87658 3.09543 4.48074 3.30126C3.36449 3.89501 2.60449 5.0746 2.60449 6.42835V13.8779C2.60449 15.8254 4.19574 17.4167 6.14324 17.4167H12.8566C14.8041 17.4167 16.3953 15.8254 16.3953 13.8779V6.42835C16.3953 5.0746 15.6353 3.89501 14.5191 3.30126C14.1232 3.09543 13.6482 3.37251 13.6482 3.81585ZM9.80074 13.4188H6.33324C6.00866 13.4188 5.73949 13.1496 5.73949 12.825C5.73949 12.5004 6.00866 12.2313 6.33324 12.2313H9.80074C10.1253 12.2313 10.3945 12.5004 10.3945 12.825C10.3945 13.1496 10.1253 13.4188 9.80074 13.4188ZM11.8749 10.2521H6.33324C6.00866 10.2521 5.73949 9.98293 5.73949 9.65835C5.73949 9.33376 6.00866 9.0646 6.33324 9.0646H11.8749C12.1995 9.0646 12.4687 9.33376 12.4687 9.65835C12.4687 9.98293 12.1995 10.2521 11.8749 10.2521Z" fill="black"/>
</svg>
