<svg width="19" height="19" viewBox="0 0 19 19" fill="none" xmlns="http://www.w3.org/2000/svg">
<path d="M14.8438 6.33334V7.99584C14.4954 7.94834 14.0996 7.92459 13.6562 7.91668V6.33334C13.6562 3.83959 12.9517 2.17709 9.5 2.17709C6.04833 2.17709 5.34375 3.83959 5.34375 6.33334V7.91668C4.90042 7.92459 4.50458 7.94834 4.15625 7.99584V6.33334C4.15625 4.03751 4.71042 0.989594 9.5 0.989594C14.2896 0.989594 14.8438 4.03751 14.8438 6.33334Z" fill="black"/>
<path d="M14.8439 7.99582C14.4956 7.94832 14.0997 7.92457 13.6564 7.91666H5.34391C4.90058 7.92457 4.50475 7.94832 4.15641 7.99582C2.13766 8.24124 1.5835 9.23082 1.5835 11.875V13.4583C1.5835 16.625 2.37516 17.4167 5.54183 17.4167H13.4585C16.6252 17.4167 17.4168 16.625 17.4168 13.4583V11.875C17.4168 9.23082 16.8627 8.24124 14.8439 7.99582ZM6.89558 13.2287C6.74516 13.3712 6.53933 13.4583 6.3335 13.4583C6.23058 13.4583 6.12766 13.4346 6.03266 13.395C5.92975 13.3554 5.85058 13.3 5.77141 13.2287C5.62891 13.0783 5.54183 12.8725 5.54183 12.6667C5.54183 12.5637 5.56558 12.4608 5.60516 12.3658C5.64475 12.2708 5.70016 12.1837 5.77141 12.1046C5.85058 12.0333 5.92975 11.9779 6.03266 11.9383C6.32558 11.8117 6.67391 11.8829 6.89558 12.1046C6.96683 12.1837 7.02225 12.2708 7.06183 12.3658C7.10141 12.4608 7.12516 12.5637 7.12516 12.6667C7.12516 12.8725 7.03808 13.0783 6.89558 13.2287ZM10.2285 12.9675C10.1889 13.0625 10.1335 13.1496 10.0622 13.2287C9.91183 13.3712 9.706 13.4583 9.50016 13.4583C9.28641 13.4583 9.0885 13.3712 8.93808 13.2287C8.86683 13.1496 8.81141 13.0625 8.77183 12.9675C8.73225 12.8725 8.7085 12.7696 8.7085 12.6667C8.7085 12.4529 8.79558 12.255 8.93808 12.1046C9.231 11.8117 9.76141 11.8117 10.0622 12.1046C10.2047 12.255 10.2918 12.4529 10.2918 12.6667C10.2918 12.7696 10.2681 12.8725 10.2285 12.9675ZM13.2289 13.2287C13.0785 13.3712 12.8727 13.4583 12.6668 13.4583C12.461 13.4583 12.2552 13.3712 12.1047 13.2287C11.9622 13.0783 11.8752 12.8804 11.8752 12.6667C11.8752 12.4529 11.9622 12.255 12.1047 12.1046C12.4056 11.8117 12.936 11.8117 13.2289 12.1046C13.2606 12.1442 13.2922 12.1837 13.3239 12.2312C13.3556 12.2708 13.3793 12.3183 13.3952 12.3658C13.4189 12.4133 13.4347 12.4608 13.4427 12.5083C13.4506 12.5637 13.4585 12.6192 13.4585 12.6667C13.4585 12.8725 13.3714 13.0783 13.2289 13.2287Z" fill="black"/>
</svg>
