<svg width="19" height="19" viewBox="0 0 19 19" fill="none" xmlns="http://www.w3.org/2000/svg">
<path d="M11.3604 1.58301H7.63956C6.81623 1.58301 6.14331 2.24801 6.14331 3.07134V3.81551C6.14331 4.63884 6.80831 5.30384 7.63164 5.30384H11.3604C12.1837 5.30384 12.8487 4.63884 12.8487 3.81551V3.07134C12.8566 2.24801 12.1837 1.58301 11.3604 1.58301Z" fill="black"/>
<path d="M13.6484 3.81624C13.6484 5.07499 12.6192 6.10416 11.3604 6.10416H7.63961C6.38086 6.10416 5.3517 5.07499 5.3517 3.81624C5.3517 3.37291 4.8767 3.09583 4.48086 3.30166C3.36461 3.89541 2.60461 5.07499 2.60461 6.42874V13.8783C2.60461 15.8258 4.19586 17.4171 6.14336 17.4171H12.8567C14.8042 17.4171 16.3954 15.8258 16.3954 13.8783V6.42874C16.3954 5.07499 15.6354 3.89541 14.5192 3.30166C14.1234 3.09583 13.6484 3.37291 13.6484 3.81624ZM9.80086 13.4192H6.33336C6.00878 13.4192 5.73961 13.15 5.73961 12.8254C5.73961 12.5008 6.00878 12.2317 6.33336 12.2317H9.80086C10.1254 12.2317 10.3946 12.5008 10.3946 12.8254C10.3946 13.15 10.1254 13.4192 9.80086 13.4192ZM11.875 10.2525H6.33336C6.00878 10.2525 5.73961 9.98333 5.73961 9.65874C5.73961 9.33416 6.00878 9.06499 6.33336 9.06499H11.875C12.1996 9.06499 12.4688 9.33416 12.4688 9.65874C12.4688 9.98333 12.1996 10.2525 11.875 10.2525Z" fill="black"/>
</svg>
