<svg width="18" height="18" viewBox="0 0 18 18" fill="none" xmlns="http://www.w3.org/2000/svg">
<path d="M14.3775 4.97965C14.055 3.35215 12.8475 2.63965 11.1675 2.63965H4.58247C2.60247 2.63965 1.28247 3.62965 1.28247 5.93965V9.80215C1.28247 11.4671 1.96497 12.4421 3.08997 12.8621C3.25497 12.9221 3.43497 12.9746 3.62247 13.0046C3.92247 13.0721 4.24497 13.1021 4.58247 13.1021H11.175C13.155 13.1021 14.475 12.1121 14.475 9.80215V5.93965C14.475 5.58715 14.445 5.27215 14.3775 4.97965ZM4.14747 8.99965C4.14747 9.30715 3.89247 9.56215 3.58497 9.56215C3.27747 9.56215 3.02247 9.30715 3.02247 8.99965V6.74965C3.02247 6.44215 3.27747 6.18715 3.58497 6.18715C3.89247 6.18715 4.14747 6.44215 4.14747 6.74965V8.99965ZM7.87497 9.85465C6.77997 9.85465 5.89497 8.96965 5.89497 7.87465C5.89497 6.77965 6.77997 5.89465 7.87497 5.89465C8.96997 5.89465 9.85497 6.77965 9.85497 7.87465C9.85497 8.96965 8.96997 9.85465 7.87497 9.85465ZM12.72 8.99965C12.72 9.30715 12.465 9.56215 12.1575 9.56215C11.85 9.56215 11.595 9.30715 11.595 8.99965V6.74965C11.595 6.44215 11.85 6.18715 12.1575 6.18715C12.465 6.18715 12.72 6.44215 12.72 6.74965V8.99965Z" fill="black"/>
<path d="M16.7249 8.18972V12.0522C16.7249 14.3622 15.4049 15.3597 13.4174 15.3597H6.83245C6.26995 15.3597 5.76745 15.2772 5.33245 15.1122C4.97995 14.9847 4.67245 14.7972 4.42495 14.5572C4.28995 14.4297 4.39495 14.2272 4.58245 14.2272H11.1674C13.9424 14.2272 15.5924 12.5772 15.5924 9.80972V5.93972C15.5924 5.75972 15.7949 5.64722 15.9224 5.78222C16.4324 6.32222 16.7249 7.10972 16.7249 8.18972Z" fill="black"/>
</svg>
