<svg width="19" height="19" viewBox="0 0 19 19" fill="none" xmlns="http://www.w3.org/2000/svg">
<path d="M11.3604 1.58333H7.63956C6.81623 1.58333 6.14331 2.24833 6.14331 3.07166V3.81583C6.14331 4.63916 6.80831 5.30416 7.63164 5.30416H11.3604C12.1837 5.30416 12.8487 4.63916 12.8487 3.81583V3.07166C12.8566 2.24833 12.1837 1.58333 11.3604 1.58333Z" fill="black"/>
<path d="M13.6482 3.81583C13.6482 5.07458 12.6191 6.10375 11.3603 6.10375H7.63949C6.38074 6.10375 5.35158 5.07458 5.35158 3.81583C5.35158 3.3725 4.87658 3.09542 4.48074 3.30125C3.36449 3.895 2.60449 5.07458 2.60449 6.42833V13.8779C2.60449 15.8254 4.19574 17.4167 6.14324 17.4167H12.8566C14.8041 17.4167 16.3953 15.8254 16.3953 13.8779V6.42833C16.3953 5.07458 15.6353 3.895 14.5191 3.30125C14.1232 3.09542 13.6482 3.3725 13.6482 3.81583ZM9.80074 13.4187H6.33324C6.00866 13.4187 5.73949 13.1496 5.73949 12.825C5.73949 12.5004 6.00866 12.2312 6.33324 12.2312H9.80074C10.1253 12.2312 10.3945 12.5004 10.3945 12.825C10.3945 13.1496 10.1253 13.4187 9.80074 13.4187ZM11.8749 10.2521H6.33324C6.00866 10.2521 5.73949 9.98292 5.73949 9.65833C5.73949 9.33375 6.00866 9.06458 6.33324 9.06458H11.8749C12.1995 9.06458 12.4687 9.33375 12.4687 9.65833C12.4687 9.98292 12.1995 10.2521 11.8749 10.2521Z" fill="black"/>
</svg>
