<svg width="18" height="18" viewBox="0 0 18 18" fill="none" xmlns="http://www.w3.org/2000/svg">
<path d="M14.3775 4.98C14.055 3.3525 12.8475 2.64 11.1675 2.64H4.58247C2.60247 2.64 1.28247 3.63 1.28247 5.94V9.8025C1.28247 11.4675 1.96497 12.4425 3.08997 12.8625C3.25497 12.9225 3.43497 12.975 3.62247 13.005C3.92247 13.0725 4.24497 13.1025 4.58247 13.1025H11.175C13.155 13.1025 14.475 12.1125 14.475 9.8025V5.94C14.475 5.5875 14.445 5.2725 14.3775 4.98ZM4.14747 9C4.14747 9.3075 3.89247 9.5625 3.58497 9.5625C3.27747 9.5625 3.02247 9.3075 3.02247 9V6.75C3.02247 6.4425 3.27747 6.1875 3.58497 6.1875C3.89247 6.1875 4.14747 6.4425 4.14747 6.75V9ZM7.87497 9.855C6.77997 9.855 5.89497 8.97 5.89497 7.875C5.89497 6.78 6.77997 5.895 7.87497 5.895C8.96997 5.895 9.85497 6.78 9.85497 7.875C9.85497 8.97 8.96997 9.855 7.87497 9.855ZM12.72 9C12.72 9.3075 12.465 9.5625 12.1575 9.5625C11.85 9.5625 11.595 9.3075 11.595 9V6.75C11.595 6.4425 11.85 6.1875 12.1575 6.1875C12.465 6.1875 12.72 6.4425 12.72 6.75V9Z" fill="black"/>
<path d="M16.7251 8.18999V12.0525C16.7251 14.3625 15.4051 15.36 13.4176 15.36H6.83257C6.27007 15.36 5.76757 15.2775 5.33257 15.1125C4.98007 14.985 4.67257 14.7975 4.42507 14.5575C4.29007 14.43 4.39507 14.2275 4.58257 14.2275H11.1676C13.9426 14.2275 15.5926 12.5775 15.5926 9.80999V5.93999C15.5926 5.75999 15.7951 5.64749 15.9226 5.78249C16.4326 6.32249 16.7251 7.10999 16.7251 8.18999Z" fill="black"/>
</svg>
