<svg width="26" height="26" viewBox="0 0 26 26" fill="none" xmlns="http://www.w3.org/2000/svg">
<path d="M12.9998 2.16663C7.03067 2.16663 2.1665 7.03079 2.1665 13C2.1665 18.9691 7.03067 23.8333 12.9998 23.8333C18.969 23.8333 23.8332 18.9691 23.8332 13C23.8332 7.03079 18.969 2.16663 12.9998 2.16663ZM17.3332 13.8125H13.8123V17.3333C13.8123 17.7775 13.444 18.1458 12.9998 18.1458C12.5557 18.1458 12.1873 17.7775 12.1873 17.3333V13.8125H8.6665C8.22234 13.8125 7.854 13.4441 7.854 13C7.854 12.5558 8.22234 12.1875 8.6665 12.1875H12.1873V8.66663C12.1873 8.22246 12.5557 7.85413 12.9998 7.85413C13.444 7.85413 13.8123 8.22246 13.8123 8.66663V12.1875H17.3332C17.7773 12.1875 18.1457 12.5558 18.1457 13C18.1457 13.4441 17.7773 13.8125 17.3332 13.8125Z" fill="#F8F8F8"/>
</svg>
