<svg width="18" height="18" viewBox="0 0 18 18" fill="none" xmlns="http://www.w3.org/2000/svg">
<path d="M12.1425 1.5H5.8575C3.1275 1.5 1.5 3.1275 1.5 5.8575V12.135C1.5 14.8725 3.1275 16.5 5.8575 16.5H12.135C14.865 16.5 16.4925 14.8725 16.4925 12.1425V5.8575C16.5 3.1275 14.8725 1.5 12.1425 1.5ZM12.66 8.6475C12.66 8.94 12.4275 9.1725 12.135 9.1725C11.8425 9.1725 11.61 8.94 11.61 8.6475V8.5125L9.57 10.5525C9.4575 10.665 9.3075 10.7175 9.15 10.7025C8.9925 10.6875 8.85 10.605 8.7675 10.47L8.0025 9.33L6.2175 11.115C6.1125 11.22 5.985 11.265 5.85 11.265C5.715 11.265 5.58 11.2125 5.4825 11.115C5.28 10.9125 5.28 10.5825 5.4825 10.3725L7.7175 8.1375C7.83 8.025 7.98 7.9725 8.1375 7.9875C8.295 8.0025 8.4375 8.085 8.52 8.22L9.285 9.36L10.8675 7.7775H10.7325C10.44 7.7775 10.2075 7.545 10.2075 7.2525C10.2075 6.96 10.44 6.7275 10.7325 6.7275H12.1275C12.195 6.7275 12.2625 6.7425 12.33 6.765C12.4575 6.8175 12.5625 6.9225 12.615 7.05C12.645 7.1175 12.6525 7.185 12.6525 7.2525V8.6475H12.66Z" fill="#161616"/>
</svg>
